<?xml version="1.0" encoding="UTF-8"?>
<svg id="Layer_2" data-name="Layer 2" xmlns="http://www.w3.org/2000/svg" viewBox="0 0 239.94 176.13">
  <defs>
    <style>
      .cls-1 {
        fill: #06b6d4;
      }

      .cls-2 {
        fill: #64748b;
      }
    </style>
  </defs>
  <g id="Layer_1-2" data-name="Layer 1">
    <g>
      <path class="cls-2" d="M77.5,128.85L0,107.35v-38.56l77.5-21.51v22.25l-63.03,16.87v3.34l63.03,16.87v22.25Z"/>
      <path class="cls-2" d="M106.94,176.13l-21.32-6.67L141.24,0l21.13,6.67-55.43,169.45Z"/>
      <path class="cls-2" d="M162.44,128.85v-22.25l63.04-16.87v-3.34l-63.04-16.87v-22.25l77.5,21.51v38.56l-77.5,21.51Z"/>
    </g>
    <g>
      <path class="cls-1" d="M47.5,133.92V46.46h16.49v35.86h3.62l23.11-35.86h18.62v.75l-26.99,41.86v2.25l28.49,41.86v.75h-19.37l-23.86-35.86h-3.62v35.86h-16.49Z"/>
      <path class="cls-1" d="M118.34,133.92l-3-87.46h14.99l2,66.47v11.24h3v-11.24l4-66.47h26.49l4,66.47v11.24h3v-11.24l2-66.47h14.99l-3,87.46h-28.74l-4-66.47v-11.99h-3v11.99l-4,66.47h-28.74Z"/>
    </g>
  </g>
</svg>
