<?xml version="1.0" encoding="UTF-8"?>
<svg id="Layer_2" data-name="Layer 2" xmlns="http://www.w3.org/2000/svg" viewBox="0 0 431 62.75">
  <defs>
    <style>
      .cls-1 {
        fill: #06b6d4;
      }

      .cls-2 {
        fill: #64748b;
      }
    </style>
  </defs>
  <g id="Layer_1-2" data-name="Layer 1">
    <g>
      <path class="cls-1" d="M101.79,45.63V12.03h6.34v13.78h1.39l8.88-13.78h7.15v.29l-10.37,16.08v.86l10.94,16.08v.29h-7.44l-9.17-13.78h-1.39v13.78h-6.34Z"/>
      <path class="cls-1" d="M139.91,46.3c-1.89,0-3.63-.48-5.23-1.44-1.6-.96-2.88-2.35-3.84-4.18-.96-1.82-1.44-4.02-1.44-6.58v-.77c0-2.53.46-4.7,1.39-6.53.93-1.82,2.17-3.22,3.72-4.2,1.55-.98,3.26-1.46,5.11-1.46,1.7,0,3.06.29,4.1.86,1.04.58,1.86,1.47,2.47,2.69h.86v-2.88h6.05v16.61c0,.96.43,1.44,1.3,1.44h.91v5.76h-4.13c-1.09,0-1.98-.33-2.66-.98-.69-.66-1.03-1.48-1.03-2.47h-.86c-.61,1.47-1.5,2.53-2.66,3.17-1.17.64-2.52.96-4.06.96ZM141.25,40.54c1.76,0,3.17-.58,4.22-1.75,1.06-1.17,1.58-2.76,1.58-4.78v-.58c0-2.02-.53-3.61-1.58-4.78-1.06-1.17-2.46-1.75-4.22-1.75s-3.17.58-4.22,1.75c-1.06,1.17-1.58,2.76-1.58,4.78v.58c0,2.02.53,3.61,1.58,4.78,1.06,1.17,2.46,1.75,4.22,1.75Z"/>
      <path class="cls-1" d="M161.03,45.63v-5.76h8.06v-12.29h-7.49v-5.76h13.54v18.05h6.91v5.76h-21.02ZM172.07,19.32c-1.25,0-2.32-.44-3.22-1.32-.9-.88-1.34-1.96-1.34-3.24s.45-2.36,1.34-3.24c.9-.88,1.97-1.32,3.22-1.32s2.32.44,3.22,1.32c.9.88,1.34,1.96,1.34,3.24s-.45,2.36-1.34,3.24c-.9.88-1.97,1.32-3.22,1.32Z"/>
      <path class="cls-1" d="M202.14,45.63l-1.15-33.6h5.76l.77,25.54v4.32h1.15v-4.32l1.54-25.54h10.18l1.54,25.54v4.32h1.15v-4.32l.77-25.54h5.76l-1.15,33.6h-11.04l-1.54-25.54v-4.61h-1.15v4.61l-1.54,25.54h-11.04Z"/>
      <path class="cls-1" d="M242.41,46.3c-1.89,0-3.63-.48-5.23-1.44-1.6-.96-2.88-2.35-3.84-4.18-.96-1.82-1.44-4.02-1.44-6.58v-.77c0-2.53.46-4.7,1.39-6.53.93-1.82,2.17-3.22,3.72-4.2,1.55-.98,3.26-1.46,5.11-1.46,1.7,0,3.06.29,4.1.86,1.04.58,1.86,1.47,2.47,2.69h.86v-2.88h6.05v16.61c0,.96.43,1.44,1.3,1.44h.91v5.76h-4.13c-1.09,0-1.98-.33-2.66-.98-.69-.66-1.03-1.48-1.03-2.47h-.86c-.61,1.47-1.5,2.53-2.66,3.17-1.17.64-2.52.96-4.06.96ZM243.75,40.54c1.76,0,3.17-.58,4.22-1.75,1.06-1.17,1.58-2.76,1.58-4.78v-.58c0-2.02-.53-3.61-1.58-4.78-1.06-1.17-2.46-1.75-4.22-1.75s-3.17.58-4.22,1.75c-1.06,1.17-1.58,2.76-1.58,4.78v.58c0,2.02.53,3.61,1.58,4.78,1.06,1.17,2.46,1.75,4.22,1.75Z"/>
      <path class="cls-1" d="M262.95,45.63v-5.76h8.35v-22.08h-8.06v-5.76h14.11v27.84h7.78v5.76h-22.18Z"/>
      <path class="cls-1" d="M301.26,46.3c-1.95,0-3.71-.47-5.28-1.42-1.57-.94-2.82-2.32-3.74-4.13-.93-1.81-1.39-4.01-1.39-6.6v-.86c0-2.56.49-4.74,1.46-6.55.98-1.81,2.27-3.19,3.89-4.15,1.62-.96,3.38-1.44,5.3-1.44s3.45.36,4.58,1.08c1.14.72,2.01,1.74,2.62,3.05h.86v-13.25h6.05v33.6h-6.05v-3.46h-.86c-.48,1.06-1.27,2.01-2.38,2.86-1.1.85-2.79,1.27-5.06,1.27ZM303.23,40.54c1.89,0,3.42-.6,4.58-1.8,1.17-1.2,1.75-2.78,1.75-4.73v-.58c0-1.95-.58-3.53-1.75-4.73-1.17-1.2-2.7-1.8-4.58-1.8s-3.38.59-4.56,1.78-1.78,2.77-1.78,4.75v.58c0,1.98.59,3.57,1.78,4.75,1.18,1.18,2.7,1.78,4.56,1.78Z"/>
      <path class="cls-1" d="M320.12,45.63v-5.76h4.9v-12.29h-4.32v-5.76h10.08v3.46h.86c.45-1.31,1.22-2.33,2.3-3.05,1.09-.72,2.37-1.08,3.84-1.08,2.37,0,4.27.74,5.71,2.23,1.44,1.49,2.16,3.75,2.16,6.79v1.06l-6.24.58v-.67c0-1.31-.34-2.36-1.01-3.14-.67-.78-1.68-1.18-3.02-1.18s-2.4.46-3.17,1.39c-.77.93-1.15,2.26-1.15,3.98v7.68h5.47v5.76h-16.42Z"/>
      <path class="cls-1" d="M359.91,46.3c-1.89,0-3.63-.48-5.23-1.44-1.6-.96-2.88-2.35-3.84-4.18-.96-1.82-1.44-4.02-1.44-6.58v-.77c0-2.53.46-4.7,1.39-6.53.93-1.82,2.17-3.22,3.72-4.2,1.55-.98,3.26-1.46,5.11-1.46,1.7,0,3.06.29,4.1.86,1.04.58,1.86,1.47,2.47,2.69h.86v-2.88h6.05v16.61c0,.96.43,1.44,1.29,1.44h.91v5.76h-4.13c-1.09,0-1.98-.33-2.66-.98-.69-.66-1.03-1.48-1.03-2.47h-.86c-.61,1.47-1.5,2.53-2.66,3.17s-2.52.96-4.06.96ZM361.26,40.54c1.76,0,3.17-.58,4.22-1.75,1.06-1.17,1.58-2.76,1.58-4.78v-.58c0-2.02-.53-3.61-1.58-4.78-1.05-1.17-2.46-1.75-4.22-1.75s-3.17.58-4.22,1.75c-1.06,1.17-1.58,2.76-1.58,4.78v.58c0,2.02.53,3.61,1.58,4.78,1.06,1.17,2.46,1.75,4.22,1.75Z"/>
      <path class="cls-1" d="M380.6,45.63v-23.81h6.05v3.55h.86c.54-1.34,1.42-2.38,2.64-3.12,1.22-.74,2.64-1.1,4.27-1.1,1.54,0,2.94.33,4.2.98,1.26.66,2.27,1.68,3.02,3.07.75,1.39,1.13,3.18,1.13,5.35v15.07h-6.05v-13.54c0-1.7-.41-3.03-1.22-4.01-.82-.98-1.99-1.46-3.53-1.46-1.76,0-3.09.6-3.98,1.8s-1.34,2.81-1.34,4.82v12.38h-6.05Z"/>
      <path class="cls-1" d="M420.06,45.63c-1.09,0-1.98-.35-2.66-1.06-.69-.7-1.03-1.6-1.03-2.69v-14.3h-7.06v-5.76h7.06v-9.79h6.05v9.79h8.59v5.76h-8.59v10.85c0,.96.43,1.44,1.3,1.44h6.43v5.76h-10.08Z"/>
    </g>
    <g>
      <path class="cls-2" d="M27.61,45.91L0,38.25v-13.74l27.61-7.66v7.93l-22.46,6.01v1.19l22.46,6.01v7.93Z"/>
      <path class="cls-2" d="M38.1,62.75l-7.6-2.38L50.32,0l7.53,2.38-19.75,60.38Z"/>
      <path class="cls-2" d="M57.88,45.91v-7.93l22.46-6.01v-1.19l-22.46-6.01v-7.93l27.61,7.66v13.74l-27.61,7.66Z"/>
    </g>
  </g>
</svg>