<?xml version="1.0" encoding="UTF-8"?>
<svg id="Layer_1" xmlns="http://www.w3.org/2000/svg" version="1.1" viewBox="0 0 1280 1024">
  <!-- Generator: Adobe Illustrator 29.1.0, SVG Export Plug-In . SVG Version: 2.1.0 Build 142)  -->
  <defs>
    <style>
      .st0 {
        fill: #06b6d4;
      }

      .st1 {
        fill: #64748b;
      }
    </style>
  </defs>
  <g>
    <path class="st1" d="M388.4,376.7l-77.5-21.5v-38.6l77.5-21.5v22.2l-63,16.9v3.3l63,16.9v22.2Z"/>
    <path class="st1" d="M417.8,424l-21.3-6.7,55.6-169.5,21.1,6.7-55.4,169.5Z"/>
    <path class="st1" d="M473.3,376.7v-22.2l63-16.9v-3.3l-63-16.9v-22.2l77.5,21.5v38.6l-77.5,21.5Z"/>
  </g>
  <g>
    <path class="st0" d="M358.4,381.8v-87.5h16.5v35.9h3.6l23.1-35.9h18.6v.7l-27,41.9v2.2l28.5,41.9v.7h-19.4l-23.9-35.9h-3.6v35.9h-16.5Z"/>
    <path class="st0" d="M429.2,381.8l-3-87.5h15l2,66.5v11.2h3v-11.2l4-66.5h26.5l4,66.5v11.2h3v-11.2l2-66.5h15l-3,87.5h-28.7l-4-66.5v-12h-3v12l-4,66.5h-28.7Z"/>
  </g>
</svg>